# xmcd CD database file
#
# Track frame offsets:
#	150
#	13377
#	27190
#	45487
#	68539
#	78253
#	97410
#	121362
#	139499
#	156371
#
# Disc length: 2390 seconds
#
# Revision: 2
# Processed by: cddbd v1.5.1PL0 Copyright (c) Steve Scherf et al.
# Submitted via: CDex 1.51
#
DISCID=8709540a
DTITLE=TRICERATOPS - TRICERATOPS
DYEAR=1998
DGENRE=Rock
TTITLE0=Two Chairs
TTITLE1=彼女のシニヨン
TTITLE2=オレンジライター
TTITLE3=ロケットに乗って
TTITLE4=復刻ジーンズ
TTITLE5=Raspberry
TTITLE6=Star Jet
TTITLE7=プレゼント
TTITLE8=アイ・ラブ・エスカレーター
TTITLE9=My Skywalker's T-Shirt
EXTD=YEAR: 1998
EXTT0=
EXTT1=
EXTT2=
EXTT3=
EXTT4=
EXTT5=
EXTT6=
EXTT7=
EXTT8=
EXTT9=
PLAYORDER=
